<svg width="20" height="18" viewBox="0 0 20 18" fill="none" xmlns="http://www.w3.org/2000/svg">
<path fill-rule="evenodd" clip-rule="evenodd" d="M19.083 3.94821C18.716 3.35421 18.08 3.00021 17.382 3.00021H4.582L3.965 0.737214C3.846 0.302214 3.451 0.000213623 3 0.000213623H1C0.447 0.000213623 0 0.448214 0 1.00021C0 1.55221 0.447 2.00021 1 2.00021H2.236L5.035 12.2632C5.154 12.6982 5.549 13.0002 6 13.0002H15C15.379 13.0002 15.725 12.7862 15.895 12.4472L19.171 5.89421C19.483 5.26921 19.45 4.54221 19.083 3.94821ZM5.5 15C4.672 15 4 15.671 4 16.5C4 17.329 4.672 18 5.5 18C6.328 18 7 17.329 7 16.5C7 15.671 6.328 15 5.5 15ZM14 16.5C14 15.671 14.672 15 15.5 15C16.328 15 17 15.671 17 16.5C17 17.329 16.328 18 15.5 18C14.672 18 14 17.329 14 16.5Z" fill="#6B4B3E"/>
</svg>
